<?xml version="1.0" encoding="utf-8"?>
<!-- Generator: Adobe Illustrator 27.3.1, SVG Export Plug-In . SVG Version: 6.00 Build 0)  -->
<svg version="1.1" id="Calque_1" xmlns="http://www.w3.org/2000/svg" xmlns:xlink="http://www.w3.org/1999/xlink" x="0px" y="0px"
	 viewBox="0 0 300 300" style="enable-background:new 0 0 300 300;" xml:space="preserve">
<style type="text/css">
	.st0{display:none;}
	.st1{display:inline;}
</style>
<g id="Calque_2_00000137834160643279591550000005007638846214386053_" class="st0">
	<path class="st1" d="M368.2,345.6h-492c-6.6,0-12-5.4-12-12V-20.8c0-6.6,5.4-12,12-12h492c6.6,0,12,5.4,12,12v354.4
		C380.2,340.2,374.8,345.6,368.2,345.6z"/>
</g>
<g id="Calque_1_00000070801956432391888550000011368783338277168512_">
	<g id="XMLID_00000170236620346007821960000004259383643530567612_">
		<g>
			<path d="M32.7,243.6C32.7,243.6,32.7,243.6,32.7,243.6c-2.2-3-4.5-6-6.6-9.2c-11.3-16.5-19-34.7-22.9-54.3
				c-1.5-7.7-1.9-15.5-2.9-23.3c-0.1-1-0.1-3.6-0.2-4.6c-0.1-2.4,0.1-1.6,0.1-4c0-3.5,0-3.2,0-4c0.4-9.1,1.5-18.2,3.5-27.1
				c2.5-11.2,6.3-22,11.3-32.3c9-18.4,21.1-34.3,36.6-47.7C65.9,24.7,81.7,15.4,99.3,9c14.5-5.2,29.5-8.1,44.9-8.7
				c0.6,0,1.3-0.2,1.9-0.3c2.6,0,5.2,0,7.8,0c1,0.1,2.1,0.3,3.1,0.4c7.7,0.9,15.4,1.4,23,2.9c19.2,3.8,36.9,11.2,53.1,22.1
				c17.3,11.6,31.7,26.2,43,43.7c14.6,22.8,22.5,47.8,23.6,74.9v12c-1.1,27.1-8.9,52.2-23.6,75c-14.7,22.8-34.2,40.5-58.4,52.7
				c-5.2,2.6-10.7,4.7-16,7.1c-0.4,0.2-0.8,0.3-1.4,0.4c0-0.6-0.1-1-0.1-1.5c0-10.9,0-22.1,0-32.9c0-1.1-0.1-1,0.9-1.5
				c24.6-12.3,43.3-31.2,55-56.1c5.1-10.8,8.4-22.2,9.8-34.1c3-24.5-1.1-47.7-12.6-69.5c-10.8-20.4-26.3-36.2-46.4-47.5
				c-12.7-7.1-26.3-11.8-40.7-13.7c-26.5-3.5-51.6,1-74.8,14.6c-28.7,16.8-47,41.6-55.1,73.8c-2.2,8.7-3.2,17.5-3.2,26.4
				c0,30.9,0,61.8,0,92.7c0,0.5,0,1.7,0,2.2C32.9,243.8,32.7,243.6,32.7,243.6z"/>
			<path d="M224.7,112.7c22.6,44.9-0.3,100.4-48,116.2c-2.7,0.9-5.6,1.7-8.4,2.3c-1.2,0.3-1.6,0.7-1.6,2c0,21.2,0,42.5,0,63.7
				c0,0.6,0,1.3,0,2.1c-3.3,0.3-6.4,0.6-9.5,0.9c-5.2,0.1-10.4,0.1-15.6,0.1c-2.3-0.2-8.3-0.2-8.3-0.2v-1.9c0,0,0-41.7,0-62.5
				c0-11.1,0-22.2,0-33.3c0-0.6-0.1-1,0.4-1.6c0.4-0.5,0.8-0.5,1.3-0.5c5.3,0,10.6,0.1,15.9-0.1c14.4-0.4,26.7-5.9,36.3-16.6
				c16.2-18,17.1-44.3,2.6-63.7c-17-22.6-50.2-26.3-71.7-8.1c-12,10.1-18,23.2-18,38.8c-0.1,46.3,0,92.6,0,138.9c0,0.6,0,1.3,0,2.2
				c-2-0.7-3.8-1.2-5.5-2c-6.4-3.1-12.9-6.2-19.2-9.5c-2.6-1.3-4.9-3.1-7.4-4.5c-0.5-0.3-1.3-1-1.3-1s0-0.8,0-1.4
				c0-32,0-64.1,0-96.1c0-9.3,0-18.6,0-27.9c0.2-38.2,27.5-72,64.7-80.4C169.2,60.1,207.3,78.1,224.7,112.7z"/>
		</g>
		<g>
		</g>
	</g>
</g>
</svg>
